<?xml version="1.0" standalone="no"?>
<!DOCTYPE svg PUBLIC "-//W3C//DTD SVG 20010904//EN"
 "http://www.w3.org/TR/2001/REC-SVG-20010904/DTD/svg10.dtd">
<svg version="1.0" xmlns="http://www.w3.org/2000/svg"
 width="960.000000pt" height="960.000000pt" viewBox="0 0 960.000000 960.000000"
 preserveAspectRatio="xMidYMid meet">

<g transform="translate(0.000000,960.000000) scale(0.100000,-0.100000)"
fill="#8B5CF6" stroke="none">
<path d="M2050 9580 c-139 -21 -367 -76 -505 -122 -107 -35 -332 -144 -464
-223 -253 -152 -544 -438 -701 -690 -161 -257 -265 -520 -328 -830 -43 -209
-43 -205 -39 -2980 4 -2906 -1 -2673 60 -2940 75 -326 225 -641 431 -905 234
-300 526 -523 916 -699 72 -32 269 -96 328 -107 20 -4 44 -10 52 -14 9 -5 85
-20 170 -35 l155 -28 2670 2 c1707 1 2697 5 2745 12 441 58 857 231 1184 493
111 89 310 293 392 401 246 327 407 729 459 1150 14 117 16 395 13 2800 -4
2970 3 2686 -73 2987 -44 178 -80 277 -159 443 -198 414 -485 726 -896 972
-259 155 -507 243 -860 305 l-125 22 -2650 2 c-2521 2 -2656 1 -2775 -16z
m2866 -2615 c224 -39 346 -86 473 -183 89 -68 194 -187 261 -296 27 -45 54
-87 60 -94 13 -14 104 -205 171 -357 72 -165 317 -891 499 -1480 62 -200 169
-529 180 -550 25 -50 78 -221 70 -228 -19 -20 -362 37 -435 72 -11 6 -49 22
-85 37 -36 14 -105 46 -155 71 -49 24 -81 37 -70 28 39 -31 242 -124 347 -159
150 -49 268 -68 428 -69 151 0 250 16 380 64 91 33 223 97 228 110 2 5 10 9
18 9 8 0 14 5 14 10 0 6 6 10 14 10 8 0 16 3 18 8 2 4 30 27 63 51 33 25 105
89 160 143 55 54 106 98 113 98 19 0 14 -41 -10 -80 -12 -19 -41 -73 -65 -119
-24 -46 -57 -103 -72 -125 -16 -23 -48 -70 -71 -106 -24 -36 -49 -69 -57 -73
-7 -4 -13 -12 -13 -16 0 -18 -162 -188 -264 -276 -32 -27 -86 -69 -119 -93
-34 -23 -69 -48 -77 -55 -27 -22 -84 -55 -169 -97 -46 -23 -81 -43 -78 -46 3
-3 46 15 96 40 50 25 95 46 99 46 10 0 72 -96 72 -111 0 -5 5 -9 10 -9 6 0 10
-6 10 -14 0 -8 3 -16 8 -18 4 -1 31 -36 61 -76 29 -39 59 -75 66 -80 7 -4 38
-31 68 -59 31 -29 58 -53 62 -53 3 0 15 -8 25 -18 36 -33 333 -172 367 -172 2
0 3 -11 3 -24 0 -21 -11 -27 -102 -59 -189 -66 -324 -94 -513 -106 -146 -8
-186 -4 -370 39 -231 55 -388 143 -544 303 -88 91 -181 210 -181 233 0 11 22
14 119 14 229 0 474 40 586 96 52 26 47 25 -45 -6 -110 -37 -255 -60 -447 -71
-167 -10 -206 -9 -290 5 -198 34 -291 63 -459 146 -89 43 -167 85 -175 92 -8
7 -52 38 -99 67 -47 29 -86 57 -88 62 -2 5 -10 9 -18 9 -8 0 -14 4 -14 9 0 4
-29 27 -64 50 -35 22 -74 52 -87 66 -13 13 -28 25 -32 25 -7 0 -166 126 -177
140 -3 4 -34 31 -70 61 -36 29 -69 59 -75 65 -5 7 -39 36 -75 65 -36 29 -74
62 -85 72 -11 10 -53 42 -92 70 -40 28 -73 54 -73 59 0 5 -8 12 -17 15 -10 4
-22 11 -28 15 -58 49 -326 238 -350 247 -21 8 33 -38 76 -64 87 -54 119 -78
119 -91 0 -36 -197 -533 -283 -714 -111 -233 -228 -450 -249 -458 -4 -2 -8
-10 -8 -18 0 -8 -4 -14 -10 -14 -5 0 -10 -5 -10 -11 0 -20 -125 -172 -201
-245 -74 -71 -158 -134 -178 -134 -6 0 -11 -4 -11 -10 0 -5 -7 -10 -15 -10 -8
0 -15 -4 -15 -9 0 -24 -228 -106 -407 -146 -179 -40 -380 -31 -613 29 -153 39
-225 68 -228 92 -3 18 8 25 75 49 222 78 372 189 502 370 27 39 54 75 58 80
32 42 181 319 212 392 15 37 38 91 51 118 12 28 26 59 31 70 9 21 98 250 154
400 35 93 183 511 204 578 9 26 18 37 33 37 66 0 337 -95 491 -172 71 -35 74
-29 5 10 -115 66 -360 152 -537 189 -106 22 -152 26 -291 27 -182 0 -266 -15
-412 -73 -86 -34 -260 -118 -268 -130 -9 -14 -117 -71 -134 -71 -9 0 -16 5
-16 11 0 9 45 76 61 89 3 3 24 30 46 60 68 92 270 277 392 360 35 23 72 50 83
59 35 30 273 154 353 183 164 61 331 90 590 103 117 7 125 6 330 -40 116 -26
250 -60 300 -75 49 -16 91 -28 92 -26 7 6 -139 56 -235 80 -53 14 -160 37
-237 52 -121 23 -157 26 -262 21 -110 -4 -123 -3 -123 12 0 16 29 100 54 156
8 17 35 84 60 149 26 66 53 133 60 150 8 17 40 89 71 159 79 179 211 427 227
427 4 0 8 5 8 11 0 20 110 168 173 232 61 63 63 64 142 78 122 21 250 18 308
-8 59 -27 62 -21 5 9 -53 27 -177 35 -273 19 -37 -7 -70 -10 -72 -7 -19 18
144 125 250 165 174 64 445 88 633 56z"/>
<path d="M4430 6695 c0 -7 50 -51 84 -74 17 -12 16 -9 -4 13 -28 31 -80 71
-80 61z"/>
<path d="M4569 6545 c21 -30 44 -68 51 -85 7 -16 16 -30 21 -30 12 0 -15 54
-47 97 -13 17 -24 36 -24 42 0 6 -9 15 -20 21 -14 8 -9 -5 19 -45z"/>
<path d="M4682 6352 c2 -4 16 -38 32 -75 34 -79 38 -66 -64 -227 -33 -52 -79
-138 -101 -190 -23 -52 -52 -117 -65 -145 -24 -54 -123 -314 -174 -460 -17
-49 -34 -93 -38 -97 -4 -3 -34 4 -66 18 -102 41 -72 19 56 -43 68 -33 130 -66
138 -74 8 -8 54 -39 103 -69 48 -30 87 -58 87 -62 0 -5 7 -8 15 -8 8 0 15 -4
15 -8 0 -5 43 -36 95 -71 52 -35 95 -67 95 -72 0 -5 4 -9 10 -9 5 0 18 -7 27
-14 25 -21 133 -102 216 -163 39 -29 74 -59 79 -67 4 -7 32 -30 60 -49 29 -19
66 -47 81 -61 15 -14 32 -26 36 -26 5 0 11 -7 15 -15 3 -8 9 -15 14 -15 9 0
-6 52 -123 425 -24 77 -53 172 -64 210 -96 327 -280 896 -339 1045 -24 63 -49
130 -54 149 -13 45 -75 181 -83 181 -4 0 -5 -4 -3 -8z"/>
<path d="M3600 4493 c0 -11 140 -84 140 -74 0 5 -31 25 -70 45 -38 21 -70 33
-70 29z"/>
<path d="M5370 4346 c0 -2 18 -19 40 -36 22 -17 40 -28 40 -23 0 8 -80 68 -80
59z"/>
<path d="M5460 4276 c0 -2 8 -10 18 -17 15 -13 16 -12 3 4 -13 16 -21 21 -21
13z"/>
<path d="M5510 4235 c8 -10 48 -40 90 -68 41 -28 91 -63 110 -77 47 -37 150
-93 150 -83 0 4 -32 26 -70 48 -39 21 -78 46 -88 55 -30 28 -206 142 -192 125z"/>
</g>
</svg>
