<?xml version="1.0" standalone="no"?>
<!DOCTYPE svg PUBLIC "-//W3C//DTD SVG 20010904//EN"
 "http://www.w3.org/TR/2001/REC-SVG-20010904/DTD/svg10.dtd">
<svg version="1.0" xmlns="http://www.w3.org/2000/svg"
 width="130.000000pt" height="45.000000pt" viewBox="0 0 130.000000 45.000000"
 preserveAspectRatio="xMidYMid meet">

<g transform="translate(0.000000,45.000000) scale(0.100000,-0.100000)"
fill="#8B5CF6" stroke="none">
<path d="M181 427 c-19 -9 -40 -54 -103 -217 -43 -112 -78 -205 -78 -207 0 -9
79 33 96 52 30 33 94 72 130 80 34 6 32 9 75 -102 7 -19 12 -21 40 -13 17 5
34 11 36 13 2 3 -5 28 -17 56 -24 61 -24 61 -6 61 13 0 26 28 26 57 0 6 -17
13 -37 15 l-37 3 -42 105 c-23 57 -46 105 -50 107 -5 1 -20 -3 -33 -10z m43
-216 c-2 -2 -21 -12 -43 -22 l-39 -17 15 51 c32 109 32 109 53 47 10 -30 17
-57 14 -59z"/>
<path d="M1093 428 c-12 -6 -25 -18 -28 -27 -11 -27 -105 -271 -131 -338 l-23
-63 37 16 c20 8 55 32 77 53 40 38 125 78 143 67 5 -3 19 -32 31 -65 l21 -59
40 10 39 10 -25 55 c-28 65 -28 63 -10 63 15 0 26 21 26 50 0 14 -9 20 -36 22
-36 3 -36 4 -78 107 -23 58 -46 106 -51 107 -6 1 -20 -2 -32 -8z m41 -195 c6
-19 1 -25 -30 -38 -20 -8 -39 -13 -42 -11 -2 3 6 35 19 73 l22 68 12 -35 c7
-19 15 -45 19 -57z"/>
<path d="M450 225 l0 -205 40 0 40 0 0 124 c0 111 2 126 23 156 28 42 58 62
76 51 22 -14 -4 -66 -45 -92 -19 -11 -34 -22 -34 -24 0 -2 28 -55 63 -118 l63
-115 29 15 c17 9 31 17 33 18 2 2 -18 44 -45 93 l-48 90 27 27 c39 39 51 90
32 130 -27 58 -93 71 -142 30 l-30 -25 -6 25 c-5 21 -12 25 -41 25 l-35 0 0
-205z"/>
<path d="M790 225 l0 -205 40 0 40 0 0 205 0 205 -40 0 -40 0 0 -205z"/>
</g>
</svg>
